PathFileType	4	(X/Y/Z)	OpenSim_Sub03_EMGStiffKnee_Gyro.trc
DataRate	CameraRate	NumFrames	NumMarkers	Units	OrigDataRate	OrigDataStartFrame	OrigNumFrames
100	100	34	8	m	100	1900	7597
Frame#	Time	torso_imu_offset_imu	pelvis_imu_offset_imu	tibia_r_imu_offset_imu	femur_r_imu_offset_imu	tibia_l_imu_offset_imu	femur_l_imu_offset_imu	toes_r_imu_offset_imu	toes_l_imu_offset_imu
				X1	Y1	Z1	X2	Y2	Z2	X3	Y3	Z3	X4	Y4	Z4	X5	Y5	Z5	X6	Y6	Z6	X7	Y7	Z7	X8		Y8	Z8	

1900	18.99000000	-0.17123884	-0.10964985	0.13854003	0.09089072	0.32371773	-0.11159159	1.75940959	1.22750685	3.56714498	-0.24203293	-0.24879887	-0.02206288	0.07410792	0.07147531	0.61781230	0.05630078	-0.01119602	0.79392438	0.40536365	2.03441922	3.12267372	0.04938847	-0.13189572	0.03148076
1901	19	-0.16814684	-0.10156369	0.12228142	0.11515461	0.33202022	-0.14136710	1.91415160	1.35044322	3.49451342	-0.24367775	-0.20765666	-0.08859186	0.02430410	0.06764399	0.64026020	0.04249812	-0.01383423	0.76974101	0.68334399	1.81305516	3.14721374	0.03315625	-0.11751654	0.05481363
1902	19.01000000	-0.16608658	-0.10599580	0.11297599	0.14482360	0.33285105	-0.14766345	2.03544277	1.42030710	3.41591571	-0.20767462	-0.16821543	-0.13938627	0.06128477	0.08088203	0.62759292	0.00254733	-0.00976591	0.76191008	0.82073843	1.66315732	3.11222122	0.01351923	-0.11295029	0.07411437
1903	19.02000000	-0.15479852	-0.11428670	0.10294082	0.18191682	0.33041335	-0.13247834	2.03453775	1.45824326	3.35956242	-0.11506982	-0.14961363	-0.18077426	0.08366894	0.08974922	0.62515221	-0.02982171	-0.00630978	0.76590857	0.81683460	1.74371659	3.08977955	0.00225590	-0.10332822	0.09689832
1904	19.03000000	-0.14763742	-0.12063968	0.10954626	0.21753472	0.32259289	-0.11205722	1.89252718	1.43065279	3.27770156	0.04867708	-0.14490079	-0.22013959	0.09841911	0.07588836	0.63412553	-0.01175240	-0.00506189	0.76198760	0.82662585	1.92725866	3.00277773	-0.01110436	-0.11899285	0.11696875
1905	19.04000000	-0.14847154	-0.12597540	0.10744942	0.24637100	0.31487482	-0.09091506	1.72656710	1.40308331	3.13448762	0.28535497	-0.14321460	-0.25863322	0.10563821	0.06736563	0.64104953	0.02085046	-0.01315700	0.75236115	0.84908255	2.02695854	2.83135662	0.00038645	-0.14166923	0.12254841
1906	19.05000000	-0.14862495	-0.13154907	0.11710261	0.26396562	0.29052931	-0.06174196	1.48945964	1.38806436	2.99818130	0.57546999	-0.14634966	-0.29514015	0.18060808	0.09117046	0.65401641	0.05050510	-0.01095910	0.75559385	0.78626007	2.06475788	2.63064423	0.02044290	-0.18128183	0.11710328
1907	19.06000000	-0.15624968	-0.14908485	0.12913554	0.27906689	0.25214941	-0.04474979	1.25710384	1.33217638	2.88772492	0.91349222	-0.15563963	-0.32954308	0.25518092	0.10716536	0.67232871	0.09491786	-0.00718937	0.76420408	0.68190030	2.07138130	2.41522692	0.05176985	-0.23240855	0.10917208
1908	19.07000000	-0.13454059	-0.18260480	0.14341726	0.29152398	0.22138406	-0.02206463	1.08820397	1.30171285	2.74441758	1.24169413	-0.18570583	-0.36778134	0.31463588	0.11724408	0.67794659	0.12151807	0.01124806	0.78070884	0.58385046	1.99986410	2.19193270	0.07542617	-0.29353462	0.08237300
1909	19.08000000	-0.10972899	-0.21111167	0.17452493	0.30011922	0.19327327	-0.00457707	0.94172235	1.21513244	2.59593683	1.51943933	-0.22087081	-0.42210404	0.33205908	0.15535297	0.72541103	0.18662060	0.05038900	0.78227353	0.47140138	1.93563324	2.00326286	0.10555227	-0.34596585	0.05729242
1910	19.09000000	-0.09860009	-0.22046518	0.20865921	0.30457027	0.17698418	-0.02048733	0.79723342	1.07496701	2.42313338	1.71131634	-0.22332526	-0.47629399	0.35256805	0.18915879	0.76433488	0.26824907	0.08382181	0.76936016	0.39201364	1.93541357	1.82817722	0.15826900	-0.39995094	0.02702400
1911	19.10000000	-0.07335751	-0.22108066	0.23555959	0.31256208	0.16005126	0.00332018	0.70709208	0.98213823	2.15591165	1.78353485	-0.19262172	-0.52538995	0.33515673	0.20863299	0.77883296	0.31614544	0.10714989	0.74893935	0.30136604	1.83765846	1.62645010	0.21272748	-0.45974210	0.00320787
1912	19.11000000	-0.05901283	-0.21493566	0.25688882	0.32601942	0.15405475	0.03134720	0.54824567	0.85461259	1.88734422	1.74341092	-0.18489228	-0.53125124	0.33241855	0.24685368	0.80888742	0.33492481	0.13266057	0.70950985	0.12716331	1.63991211	1.41584211	0.23750135	-0.52210873	-0.01974382
1913	19.12000000	-0.06721606	-0.19548739	0.27159826	0.33108036	0.15058076	0.04278876	0.31601456	0.68549925	1.62230033	1.55953421	-0.22510196	-0.49913042	0.31481967	0.26313323	0.87180895	0.34618975	0.14888617	0.66958093	0.00097970	1.46020178	1.16538491	0.31163776	-0.58777546	-0.04026889
1914	19.13000000	-0.08292724	-0.16279566	0.26273648	0.35087399	0.14916619	0.08376410	0.11824566	0.50455013	1.24899721	1.21724427	-0.31052430	-0.41345341	0.31756307	0.29299569	0.93704045	0.31692703	0.13194924	0.62255094	-0.00723578	1.21878819	0.80164786	0.29972842	-0.63965353	-0.05655229
1915	19.14000000	-0.09004594	-0.12871179	0.27318199	0.40792157	0.13914429	0.10793505	-0.07703005	0.25882470	0.85661917	0.75560943	-0.42365227	-0.30770903	0.25877075	0.32535801	0.97321243	0.15880187	0.15761540	0.59237168	-0.05324570	0.92904563	0.38952663	0.31420002	-0.68987828	-0.08037217
1916	19.15000000	-0.10004335	-0.09946029	0.29203726	0.48351154	0.15130640	0.14863679	-0.21422246	-0.01437776	0.46250847	0.28763109	-0.53290022	-0.20407754	0.16835107	0.32651338	0.99617238	-0.00396246	0.20862727	0.54083191	-0.08924341	0.48083343	-0.06745726	0.31376356	-0.76047883	-0.09912344
1917	19.16000000	-0.10428403	-0.06195829	0.28652237	0.55325966	0.16310975	0.18804114	-0.27807346	-0.28349869	-0.01288865	-0.08702001	-0.55936414	-0.12253136	0.14026431	0.36880304	1.05856413	-0.24539276	0.21784982	0.48947823	-0.00703492	-0.09820315	-0.48610120	0.28442286	-0.84600236	-0.10719721
1918	19.17000000	-0.11490758	-0.01785218	0.27330035	0.61290339	0.16976025	0.24407420	-0.19328926	-0.55547684	-0.50855430	-0.34420291	-0.50292911	-0.04713356	0.17503445	0.40161851	1.13918397	-0.35278139	0.21238054	0.45899467	0.21144309	-0.90148300	-0.82575613	0.30517130	-0.94044061	-0.10290994
1919	19.18000000	-0.12312143	0.02877432	0.25298153	0.65661216	0.18081591	0.30117821	0.00422281	-0.82862155	-1.04480214	-0.47853565	-0.44798631	0.03008935	0.28468606	0.41198506	1.18666630	-0.28140748	0.21880786	0.44151164	0.96055903	-1.83365148	-1.16578698	0.35735359	-1.05244677	-0.07055995
1920	19.19000000	-0.12556038	0.08082364	0.22481500	0.71424238	0.15860141	0.32843848	0.27766407	-1.09003674	-1.62571328	-0.48908716	-0.41878296	0.11545718	0.38594949	0.42924398	1.21830696	-0.13116684	0.23599194	0.44404948	0.50760479	-2.27117724	-1.02236569	0.28753165	-1.14624074	-0.01924049
1921	19.20000000	-0.11019357	0.12818219	0.19766595	0.77602085	0.13754462	0.33593798	0.57499692	-1.27626748	-1.98552794	-0.39996868	-0.45447599	0.11360701	0.41983187	0.43091284	1.25366932	0.08801451	0.26739146	0.45146427	0.31307087	-2.14618239	-0.73476730	0.22615691	-1.25046251	0.03147014
1922	19.21000000	-0.08169890	0.13647473	0.15971142	0.71202447	0.15338641	0.36397879	-0.01073288	-1.19621215	-1.52322605	-0.45590237	-0.58332646	-0.04815587	0.40200782	0.45238829	1.27267931	0.28887958	0.31344605	0.45495493	0.80063168	-2.28239792	-1.04390662	0.28977992	-1.37117398	0.05102237
1923	19.22000000	-0.05580219	0.12529063	0.10973262	0.53792959	0.16389356	0.41453053	0.13193350	-0.76183959	-0.87889108	-0.65692109	-0.67120561	-0.23187551	0.40734637	0.42171226	1.30421474	0.34117067	0.34121359	0.45616019	1.02675337	-2.72113960	-1.44945947	0.30552749	-1.53297190	0.08771935
1924	19.23000000	-0.00671364	0.13291098	0.05597637	0.34087708	0.15375320	0.48517475	1.94287165	-0.46655834	-1.12456459	-0.77124863	-0.60256185	-0.20857203	0.44759370	0.39264446	1.32417335	0.36562035	0.34768463	0.44722052	0.80532852	-2.50496165	-1.16972312	0.28466034	-1.76530324	0.16615226
1925	19.24000000	0.01203993	0.14993458	0.02744045	0.23897016	0.12393556	0.56263642	2.65370974	-0.53666341	-1.59350596	-0.86529567	-0.45903392	0.01397776	0.47634181	0.39701000	1.31311384	0.39370024	0.35664219	0.41700079	1.30920823	-1.64573828	-0.73242172	0.38134285	-2.05405953	0.23458125
1926	19.25000000	0.01825134	0.16946827	-0.00672955	0.22947580	0.10804273	0.56093065	2.51724345	-0.72621976	-1.90575525	-0.78731963	-0.33776105	0.46494917	0.45866541	0.36682769	1.35870654	0.44546348	0.37020793	0.35844807	0.93668001	-1.03376086	-0.43710394	0.46253367	-2.30581089	0.28495451
1927	19.26000000	0.01915387	0.19677887	-0.03883839	0.35282937	0.05435445	0.43226643	2.38830306	-0.70125970	-2.03189364	-0.20031889	-0.39836422	1.11633352	0.40806226	0.35925433	1.42047618	0.54284204	0.39287992	0.24132316	0.57059996	-0.70628043	-0.31764385	0.52866197	-2.48112678	0.33814870
1928	19.27000000	0.04060647	0.21205093	-0.06722926	0.51663740	-0.03744823	0.29935394	1.80374864	-0.73563401	-1.76078257	0.74984852	-0.81731710	1.02437585	0.27686081	0.31640567	1.44776264	0.66436058	0.40999714	0.06020811	0.33325350	-0.48621158	-0.26205809	0.65650549	-2.65144356	0.40099225
1929	19.28000000	0.09434179	0.22440067	-0.09110409	0.61527592	-0.03872889	0.22931702	1.19467686	-0.93555254	-1.42581024	2.10042663	-0.75861888	-0.03817204	0.12585141	0.26401778	1.47079872	0.83717151	0.43758630	-0.12810004	0.34288111	-0.33863038	-0.20132410	0.85285085	-2.77811338	0.49291132
1930	19.29000000	0.17878598	0.26470790	-0.12358700	0.73553895	0.05842913	0.21861244	0.90336869	-0.94189942	-1.36189336	2.02707282	-0.42432172	-1.01075864	0.00763322	0.25229480	1.51495457	1.03295299	0.48012482	-0.30184256	0.33202250	-0.07046896	-0.16846915	0.72797290	-2.91415121	0.65218202
1931	19.30000000	0.27385027	0.30220119	-0.15601996	0.79430758	0.17567570	0.26132314	0.66150593	-0.77530379	-1.30566190	1.03333155	-0.46593374	-1.45372620	-0.13112402	0.18496963	1.58385102	1.15587294	0.51596279	-0.46797484	0.33763861	0.12108649	-0.20870392	0.57523296	-3.01954413	0.92625002
1932	19.31000000	0.37737086	0.33121730	-0.17446713	0.78898085	0.30174046	0.33664548	0.35130655	-0.76466513	-1.01029241	0.05115632	-0.69425960	-1.48371761	-0.31364107	0.10278159	1.61260594	1.16758516	0.55314985	-0.63225724	0.42298215	0.15534264	-0.31612073	0.41189880	-3.11571769	1.21066197
1933	19.32000000	0.46007244	0.34314205	-0.18721416	0.75381357	0.39904531	0.37247800	0.32201052	-0.76750895	-0.78741657	-0.78448643	-0.71912014	-1.23328863	-0.55615251	0.07003918	1.59711932	1.11126882	0.56324883	-0.76054859	0.45036288	0.17010925	-0.31022903	0.35980440	-3.07505525	1.50237186
